<!DOCTYPE svg PUBLIC "-//W3C//DTD SVG 1.1//EN" "http://www.w3.org/Graphics/SVG/1.1/DTD/svg11.dtd">
<!-- Uploaded to: SVG Repo, www.svgrepo.com, Transformed by: SVG Repo Mixer Tools -->
<svg fill="#e08709" height="256px" width="256px" version="1.1" id="Layer_1" xmlns="http://www.w3.org/2000/svg" xmlns:xlink="http://www.w3.org/1999/xlink" viewBox="0 0 512 512" xml:space="preserve">
<g id="SVGRepo_bgCarrier" stroke-width="0"/>
<g id="SVGRepo_tracerCarrier" stroke-linecap="round" stroke-linejoin="round"/>
<g id="SVGRepo_iconCarrier"> <g> <g> <path d="M409.967,403.584c-4.771-2.187-10.403-0.097-12.589,4.666c-14.781,32.186-40.513,56.85-74.414,71.324 c-31.647,13.51-68.126,16.979-102.711,9.768c-33.42-6.967-62.193-23.118-83.203-46.707c-23.63-26.529-36.01-60.455-36.794-100.8 c-0.027-1.673-0.039-3.334-0.039-5.008c0-74.802,33.023-145.145,90.602-192.991c4.034-3.351,4.586-9.337,1.235-13.37 c-3.351-4.033-9.338-4.584-13.37-1.234c-61.936,51.465-97.456,127.13-97.456,207.595c0,1.773,0.014,3.533,0.042,5.341 c1.98,101.863,71.09,152.416,135.107,165.762c13.058,2.723,26.365,4.07,39.626,4.07c25.691,0,51.21-5.056,74.416-14.963 c38.313-16.357,67.432-44.319,84.213-80.862C416.82,411.408,414.732,405.772,409.967,403.584z"/> </g> </g> <g> <g> <path d="M314.267,114.779c8.751-4.163,14.829-13.066,14.829-23.385c0-13.515-10.405-24.629-23.623-25.791 c21.627-13.772,41.4-30.63,58.274-49.845c2.46-2.801,3.052-6.784,1.515-10.18C363.726,2.182,360.342,0,356.614,0H155.386 c-3.728,0-7.111,2.182-8.649,5.578c-1.537,3.396-0.944,7.379,1.515,10.18c16.872,19.211,36.645,36.07,58.27,49.845 C193.303,66.766,182.9,77.88,182.9,91.394c0,14.286,11.623,25.908,25.909,25.908h73.537 c79.899,44.252,129.437,128.142,129.437,219.525c0,1.648-0.013,3.284-0.053,4.973c-0.194,10.081-1.146,19.93-2.828,29.275 c-0.928,5.161,2.503,10.097,7.663,11.025c0.568,0.103,1.134,0.152,1.692,0.152c4.508,0,8.506-3.223,9.333-7.814 c1.859-10.332,2.91-21.189,3.124-32.231c0.042-1.798,0.057-3.582,0.057-5.381C430.772,247.51,386.778,164.848,314.267,114.779z M177.639,18.987h156.724c-19.982,19.086-43.182,34.945-68.107,46.499h-20.523C220.814,53.929,197.616,38.069,177.639,18.987z M303.19,98.314h-94.381c-3.817,0-6.922-3.104-6.922-6.92c0-3.815,3.105-6.92,6.922-6.92h94.381c3.816,0,6.92,3.105,6.92,6.92 C310.11,95.211,307.007,98.314,303.19,98.314z"/> </g> </g> <g> <g> <path d="M287.253,295.664h-62.507c-3.48,0-6.311-2.832-6.311-6.311v-25.461c0-3.481,2.832-6.311,6.311-6.311h78.312 c5.244,0,9.494-4.251,9.494-9.494c0-5.243-4.249-9.494-9.494-9.494h-37.565v-23.119c0-5.243-4.249-9.494-9.494-9.494 c-5.244,0-9.494,4.251-9.494,9.494v23.119h-21.76c-13.951,0-25.299,11.349-25.299,25.299v25.461 c0,13.951,11.349,25.299,25.299,25.299h62.507c3.48,0,6.311,2.832,6.311,6.311v25.461c0,3.48-2.832,6.311-6.311,6.311h-78.312 c-5.244,0-9.494,4.251-9.494,9.494c0,5.243,4.249,9.494,9.494,9.494h37.566v23.119c0,5.243,4.249,9.494,9.494,9.494 s9.494-4.251,9.494-9.494v-23.119h21.758c13.951,0,25.299-11.349,25.299-25.299v-25.461 C312.552,307.013,301.203,295.664,287.253,295.664z"/> </g> </g> </g>
</svg>