<?xml version="1.0" encoding="UTF-8"?>
<svg id="Layer_2" data-name="Layer 2" xmlns="http://www.w3.org/2000/svg" viewBox="0 0 33.41 24.21">
  <defs>
    <style>
      .cls-1 {
        fill: #000;
        stroke-width: 0px;
      }
    </style>
  </defs>
  <g id="Capa_1" data-name="Capa 1">
    <g>
      <path class="cls-1" d="M0,22.09V2.11h5.78c1.16,0,2.12.13,2.95.32.84.26,1.54.58,2.06,1.03.58.45.96.96,1.22,1.61s.39,1.35.39,2.12c0,.51-.06,1.03-.26,1.54-.19.51-.45.96-.77,1.35s-.77.77-1.28,1.09-1.09.51-1.73.64c1.54.26,2.76.77,3.66,1.54s1.28,1.86,1.28,3.21c0,.84-.13,1.61-.45,2.31s-.77,1.28-1.28,1.73-1.28.84-2.12,1.09-1.8.39-2.83.39H0ZM1.41,11.43h4.37c.9,0,1.73-.13,2.38-.32.64-.26,1.22-.58,1.61-.96.45-.39.71-.84.9-1.28.19-.51.32-.96.32-1.54,0-1.35-.45-2.38-1.28-3.08-.84-.71-2.18-1.03-3.92-1.03H1.48v8.22h-.06ZM1.41,12.52v8.42h5.01c1.73,0,3.08-.39,3.98-1.16s1.35-1.8,1.35-3.21c0-.64-.13-1.22-.39-1.73-.26-.51-.58-.96-1.03-1.28s-1.03-.64-1.67-.84-1.41-.26-2.25-.26H1.41v.06Z"/>
      <path class="cls-1" d="M19.02,14.77v9.44h-4.49V0h7.38c1.67,0,3.04.15,4.26.53,1.14.3,2.13.84,2.89,1.45s1.29,1.37,1.67,2.21.53,1.83.53,2.82c0,.84-.15,1.6-.38,2.28s-.61,1.37-1.07,1.98c-.46.61-.99,1.14-1.67,1.52-.69.46-1.45.84-2.28,1.07.53.3,1.07.76,1.45,1.37l6.09,8.91h-4.03c-.38,0-.76-.08-.99-.23-.3-.15-.53-.38-.69-.69l-5.1-7.69c-.15-.3-.38-.53-.61-.61-.23-.15-.53-.15-.99-.15h-1.98ZM19.02,11.49h2.82c.84,0,1.6-.08,2.21-.3.61-.23,1.14-.53,1.52-.91s.69-.84.91-1.29c.23-.53.3-1.07.3-1.67,0-1.22-.38-2.21-1.22-2.82-.84-.69-2.06-.99-3.73-.99h-2.89v7.99h.08Z"/>
    </g>
  </g>
</svg>